<?xml version="1.0" encoding="UTF-8" standalone="no"?> <svg width="64" height="64" viewBox="0 0 64 64" fill="none" xmlns="http://www.w3.org/2000/svg">
<path d="M10.4601 52.3801H53.5401C53.8053 52.3801 54.0597 52.2747 54.2472 52.0872C54.4347 51.8996 54.5401 51.6453 54.5401 51.3801V8.31006C54.5401 8.04484 54.4347 7.79049 54.2472 7.60295C54.0597 7.41542 53.8053 7.31006 53.5401 7.31006H10.4601C10.1949 7.31006 9.94051 7.41542 9.75298 7.60295C9.56544 7.79049 9.46008 8.04484 9.46008 8.31006V51.3801C9.46008 51.6453 9.56544 51.8996 9.75298 52.0872C9.94051 52.2747 10.1949 52.3801 10.4601 52.3801ZM11.4601 9.31006H52.5401V50.3801H11.4601V9.31006Z" fill="black"/>
<path d="M57.85 3H6.15002C5.88481 3 5.63045 3.10536 5.44292 3.29289C5.25538 3.48043 5.15002 3.73478 5.15002 4V55.69C5.15002 55.9552 5.25538 56.2096 5.44292 56.3971C5.63045 56.5846 5.88481 56.69 6.15002 56.69H12.69V60C12.69 60.2652 12.7954 60.5196 12.9829 60.7071C13.1705 60.8946 13.4248 61 13.69 61H20.15C20.4152 61 20.6696 60.8946 20.8571 60.7071C21.0447 60.5196 21.15 60.2652 21.15 60V56.69H42.85V60C42.85 60.2652 42.9554 60.5196 43.1429 60.7071C43.3305 60.8946 43.5848 61 43.85 61H50.31C50.5752 61 50.8296 60.8946 51.0171 60.7071C51.2047 60.5196 51.31 60.2652 51.31 60V56.69H57.85C58.1152 56.69 58.3696 56.5846 58.5571 56.3971C58.7447 56.2096 58.85 55.9552 58.85 55.69V4C58.85 3.73478 58.7447 3.48043 58.5571 3.29289C58.3696 3.10536 58.1152 3 57.85 3V3ZM19.15 59H14.69V56.69H19.15V59ZM49.31 59H44.85V56.69H49.31V59ZM56.85 54.69H7.15002V5H56.85V54.69Z" fill="black"/>
<path d="M32.0001 27.69C31.5725 27.688 31.1539 27.813 30.7973 28.0491C30.4408 28.2853 30.1624 28.6219 29.9974 29.0164C29.8324 29.4109 29.7882 29.8455 29.8704 30.2652C29.9526 30.6849 30.1575 31.0707 30.4592 31.3737C30.7609 31.6768 31.1457 31.8835 31.565 31.9677C31.9843 32.0519 32.4191 32.0097 32.8143 31.8465C33.2096 31.6833 33.5476 31.4065 33.7853 31.051C34.0231 30.6956 34.1501 30.2776 34.1501 29.85C34.1501 29.2788 33.9239 28.7309 33.521 28.3261C33.1181 27.9213 32.5712 27.6926 32.0001 27.69V27.69Z" fill="black"/>
<path d="M41.6901 28.8499H39.3901C39.2119 27.5711 38.7093 26.3593 37.9301 25.3299L39.5601 23.6999C39.6647 23.6103 39.7498 23.4999 39.8098 23.3759C39.8698 23.2518 39.9035 23.1167 39.9089 22.979C39.9142 22.8412 39.891 22.7039 39.8407 22.5756C39.7904 22.4473 39.7142 22.3307 39.6167 22.2333C39.5193 22.1358 39.4027 22.0595 39.2744 22.0093C39.1461 21.959 39.0087 21.9358 38.871 21.9411C38.7333 21.9464 38.5982 21.9802 38.4741 22.0402C38.35 22.1002 38.2397 22.1852 38.1501 22.2899L36.5101 23.9199C35.4876 23.1351 34.2775 22.6317 33.0001 22.4599V20.1499C33.0001 19.8847 32.8947 19.6303 32.7072 19.4428C32.5196 19.2553 32.2653 19.1499 32.0001 19.1499C31.7348 19.1499 31.4805 19.2553 31.293 19.4428C31.1054 19.6303 31.0001 19.8847 31.0001 20.1499V22.4599C29.7226 22.6317 28.5125 23.1351 27.4901 23.9199L25.8501 22.2899C25.6588 22.1261 25.4127 22.0405 25.161 22.0502C24.9093 22.0599 24.6706 22.1642 24.4925 22.3423C24.3144 22.5204 24.2101 22.7592 24.2003 23.0108C24.1906 23.2625 24.2762 23.5086 24.4401 23.6999L26.0701 25.3299C25.2908 26.3593 24.7882 27.5711 24.6101 28.8499H22.3101C22.0448 28.8499 21.7905 28.9553 21.603 29.1428C21.4154 29.3303 21.3101 29.5847 21.3101 29.8499C21.3101 30.1151 21.4154 30.3695 21.603 30.557C21.7905 30.7445 22.0448 30.8499 22.3101 30.8499H24.6101C24.7863 32.1261 25.2892 33.3352 26.0701 34.3599L24.4401 35.9999C24.2518 36.1869 24.1454 36.441 24.1445 36.7064C24.1436 36.9717 24.2481 37.2266 24.4351 37.4149C24.622 37.6032 24.8762 37.7095 25.1415 37.7105C25.4069 37.7114 25.6618 37.6069 25.8501 37.4199L27.4901 35.7799C28.5112 36.5653 29.7224 37.0656 31.0001 37.2299V39.5399C31.0001 39.8051 31.1054 40.0595 31.293 40.247C31.4805 40.4345 31.7348 40.5399 32.0001 40.5399C32.2653 40.5399 32.5196 40.4345 32.7072 40.247C32.8947 40.0595 33.0001 39.8051 33.0001 39.5399V37.2299C34.2787 37.0627 35.49 36.5589 36.5101 35.7699L38.1501 37.4099C38.2397 37.5146 38.35 37.5996 38.4741 37.6596C38.5982 37.7197 38.7333 37.7534 38.871 37.7587C39.0087 37.764 39.1461 37.7408 39.2744 37.6905C39.4027 37.6403 39.5193 37.564 39.6167 37.4666C39.7142 37.3691 39.7904 37.2526 39.8407 37.1242C39.891 36.9959 39.9142 36.8586 39.9089 36.7208C39.9035 36.5831 39.8698 36.448 39.8098 36.3239C39.7498 36.1999 39.6647 36.0895 39.5601 35.9999L37.9301 34.3699C38.7109 33.3452 39.2138 32.1361 39.3901 30.8599H41.6901C41.9553 30.8599 42.2096 30.7545 42.3972 30.567C42.5847 30.3795 42.6901 30.1251 42.6901 29.8599C42.6901 29.5947 42.5847 29.3403 42.3972 29.1528C42.2096 28.9653 41.9553 28.8599 41.6901 28.8599V28.8499ZM32.0001 35.3099C30.9173 35.3119 29.8584 34.9925 28.9573 34.3922C28.0563 33.7919 27.3536 32.9377 26.9384 31.9378C26.5231 30.9379 26.4139 29.8372 26.6247 28.7752C26.8354 27.7132 27.3566 26.7376 28.1222 25.972C28.8878 25.2064 29.8634 24.6853 30.9254 24.4745C31.9874 24.2638 33.088 24.373 34.088 24.7882C35.0879 25.2035 35.9421 25.9061 36.5424 26.8072C37.1427 27.7082 37.462 28.7672 37.4601 29.8499C37.4574 31.2972 36.8813 32.6844 35.8579 33.7078C34.8346 34.7312 33.4473 35.3073 32.0001 35.3099V35.3099Z" fill="black"/>
</svg>
